<?xml version="1.0" encoding="utf-8"?>
<!-- Generator: Adobe Illustrator 23.1.0, SVG Export Plug-In . SVG Version: 6.00 Build 0)  -->
<svg version="1.1" id="Layer_1" opacity="0.9" xmlns="http://www.w3.org/2000/svg" xmlns:xlink="http://www.w3.org/1999/xlink"
	 x="0px" y="0px" viewBox="0 0 210 62" style="enable-background:new 0 0 210 62;" xml:space="preserve">
<style type="text/css">
	.st0{fill:#339CD3;}
	.st1{fill:#CED4DA;}
</style>
<g>
	<g>
		<path class="st0" d="M39.4,61.1H28.1V11.4H11.3v49.7H0V0h39.4V61.1z"/>
		<path class="st0" d="M81.2,61.1H69.9V11.4H53.1v49.7H41.8V0h39.4V61.1z"/>
		<path class="st0" d="M122.9,11.4h-14v49.7H97.5V11.4H83.7V0h39.1v11.4H122.9z"/>
	</g>
	<g>
		<path class="st1" d="M122.2,49.2c1.7,0,3.1,0.6,4.3,1.7c1.1,1.1,1.7,2.6,1.7,4.3s-0.6,3.2-1.7,4.3s-2.6,1.7-4.3,1.7
			c-1.7,0-3.2-0.6-4.3-1.7c-1.1-1.1-1.7-2.6-1.7-4.3s0.6-3.1,1.7-4.3C119.1,49.7,120.5,49.2,122.2,49.2z"/>
		<path class="st1" d="M143.9,40.4v20.7h-11.3V0h18.7c3.6,0,6.7,0.9,9.5,2.6s4.9,4.2,6.4,7.3c1.5,3.2,2.3,6.8,2.3,10.8
			c0,6-1.6,10.7-4.9,14.3c-3.3,3.6-7.8,5.4-13.5,5.4H143.9z M143.9,29h7.4c2.2,0,3.9-0.7,5-2.1s1.7-3.4,1.7-6c0-2.9-0.6-5.1-1.8-6.8
			s-2.8-2.6-4.8-2.6h-7.5L143.9,29L143.9,29z"/>
		<path class="st1" d="M190.4,26.5L190.4,26.5L198.1,0H210l-15.8,48.5c-1.7,4.9-3.6,8.3-5.7,10.3c-2.1,2-4.6,3.1-7.4,3.2h-2.3
			l-1.7-0.1l-0.2-11.4c0.3,0.1,1,0.2,2.3,0.2c1.7,0,3-0.4,3.9-1.2s1.6-2.3,2.1-4.5l0.5-2L168.8,0h12L190.4,26.5z"/>
	</g>
</g>
</svg>
